<mxfile host="app.diagrams.net" modified="2024-02-29T03:28:31.241Z" agent="Mozilla/5.0 (X11; Ubuntu; Linux x86_64; rv:123.0) Gecko/20100101 Firefox/123.0" version="23.1.8" etag="BJKHC8D9i1_CgtqWR1ga" type="github">
  <diagram name="Page-1" id="RWtFVWQ1SRV1Kj1hZegn">
    <mxGraphModel>
      <root>
        <mxCell id="0" />
        <mxCell id="1" parent="0" />
      </root>
    </mxGraphModel>
  </diagram>
</mxfile>
